<svg xmlns="http://www.w3.org/2000/svg" viewBox="0 0 500 500"><path d="M 347.536 252.87 C 347.336 216.17 363.936 188.47 397.536 168.07 C 378.736 141.17 350.336 126.37 312.836 123.47 C 277.336 120.67 238.536 144.17 224.336 144.17 C 209.336 144.17 174.936 124.47 147.936 124.47 C 92.136 125.37 32.836 168.97 32.836 257.67 C 32.836 283.87 37.636 310.937 47.236 338.87 C 60.036 375.57 106.236 465.57 154.436 464.07 C 179.636 463.47 197.436 446.17 230.236 446.17 C 262.036 446.17 278.536 464.07 306.636 464.07 C 355.236 463.37 397.036 381.57 409.236 344.77 C 344.036 314.07 347.536 254.77 347.536 252.87 Z M 290.936 88.67 C 318.236 56.27 315.736 26.77 314.936 16.17 C 290.836 17.57 262.936 32.57 247.036 51.07 C 229.536 70.87 219.236 95.37 221.436 122.97 C 247.536 124.97 271.336 111.57 290.936 88.67 Z" style="fill:#e9967a"/></svg>