<svg xmlns="http://www.w3.org/2000/svg" viewBox="0 0 500 500"><path d="M 246.278 6.854 C 109.378 6.854 -1.722 117.954 -1.722 254.854 C -1.722 391.754 109.378 502.854 246.278 502.854 C 383.178 502.854 494.278 391.754 494.278 254.854 C 494.278 117.954 383.178 6.854 246.278 6.854 Z M 346.978 371.754 C 342.778 371.754 340.178 370.454 336.278 368.154 C 273.878 330.554 201.278 328.954 129.578 343.654 C 125.678 344.654 120.578 346.254 117.678 346.254 C 107.978 346.254 101.878 338.554 101.878 330.454 C 101.878 320.154 107.978 315.254 115.478 313.654 C 197.378 295.554 281.078 297.154 352.478 339.854 C 358.578 343.754 362.178 347.254 362.178 356.354 C 362.178 365.454 355.078 371.754 346.978 371.754 Z M 373.878 306.154 C 368.678 306.154 365.178 303.854 361.578 301.954 C 299.078 264.954 205.878 250.054 122.978 272.554 C 118.178 273.854 115.578 275.154 111.078 275.154 C 100.378 275.154 91.678 266.454 91.678 255.754 C 91.678 245.054 96.878 237.954 107.178 235.054 C 134.978 227.254 163.378 221.454 204.978 221.454 C 269.878 221.454 332.578 237.554 381.978 266.954 C 390.078 271.754 393.278 277.954 393.278 286.654 C 393.178 297.454 384.778 306.154 373.878 306.154 Z M 404.878 229.954 C 399.678 229.954 396.478 228.654 391.978 226.054 C 320.778 183.554 193.478 173.354 111.078 196.354 C 107.478 197.354 102.978 198.954 98.178 198.954 C 84.978 198.954 74.878 188.654 74.878 175.354 C 74.878 161.754 83.278 154.054 92.278 151.454 C 127.478 141.154 166.878 136.254 209.778 136.254 C 282.778 136.254 359.278 151.454 415.178 184.054 C 422.978 188.554 428.078 194.754 428.078 206.654 C 428.078 220.254 417.078 229.954 404.878 229.954 Z" style="fill:#e9967a"/></svg>