<?xml version="1.0" encoding="utf-8"?><svg version="1.1" id="Layer_1" xmlns="http://www.w3.org/2000/svg" xmlns:xlink="http://www.w3.org/1999/xlink" x="0px" y="0px" viewBox="0 0 122.88 122.88" style="enable-background:new 0 0 122.88 122.88" xml:space="preserve"><style type="text/css"><![CDATA[
	.st0{fill:#FF0000;}
	.st1{fill:#FFFFFF;}
]]></style><g><path class="st0" d="M122.88,61.44C122.88,27.51,95.37,0,61.44,0C27.51,0,0,27.51,0,61.44c0,33.93,27.51,61.44,61.44,61.44 C95.37,122.88,122.88,95.37,122.88,61.44L122.88,61.44z"/><path class="st1" d="M61.44,32.12c16.13,0,29.32,13.13,29.32,29.32c0,16.2-13.13,29.32-29.32,29.32S32.12,77.64,32.12,61.44 C32.12,45.24,45.31,32.12,61.44,32.12L61.44,32.12L61.44,32.12z M61.44,29.32c-17.73,0-32.12,14.38-32.12,32.12 c0,17.73,14.38,32.12,32.12,32.12s32.12-14.38,32.12-32.12C93.56,43.71,79.17,29.32,61.44,29.32L61.44,29.32L61.44,29.32z"/><polygon class="st1" points="50.27,77.5 77.5,60.74 50.27,45.38 50.27,77.5"/></g></svg>